<?xml version="1.0" encoding="UTF-8" standalone="no"?>
<svg
   version="1.1"
   width="1024px"
   height="1024px"
   style="shape-rendering:geometricPrecision; text-rendering:geometricPrecision; image-rendering:optimizeQuality; fill-rule:evenodd; clip-rule:evenodd"
   id="svg105"
   sodipodi:docname="Chefmate.svg"
   inkscape:version="1.4 (86a8ad7, 2024-10-11)"
   xmlns:inkscape="http://www.inkscape.org/namespaces/inkscape"
   xmlns:sodipodi="http://sodipodi.sourceforge.net/DTD/sodipodi-0.dtd"
   xmlns="http://www.w3.org/2000/svg"
   xmlns:svg="http://www.w3.org/2000/svg">
  <defs
     id="defs105">
    <inkscape:path-effect
       effect="bend_path"
       id="path-effect110"
       is_visible="true"
       lpeversion="1"
       bendpath="m 537.50189,476.68967 h 20.92465"
       prop_scale="1"
       scale_y_rel="false"
       vertical="false"
       hide_knot="false" />
    <inkscape:path-effect
       effect="fillet_chamfer"
       id="path-effect109"
       is_visible="true"
       lpeversion="1"
       nodesatellites_param="F,0,0,1,0,10.462324,0,1 @ F,0,0,1,0,10.462324,0,1 @ F,0,0,1,0,10.462324,0,1 @ F,0,0,1,0,10.462324,0,1"
       radius="10.462324"
       unit="px"
       method="auto"
       mode="F"
       chamfer_steps="1"
       flexible="false"
       use_knot_distance="true"
       apply_no_radius="true"
       apply_with_radius="true"
       only_selected="false"
       hide_knots="false" />
  </defs>
  <sodipodi:namedview
     id="namedview105"
     pagecolor="#ffffff"
     bordercolor="#000000"
     borderopacity="0.25"
     inkscape:showpageshadow="2"
     inkscape:pageopacity="0.0"
     inkscape:pagecheckerboard="0"
     inkscape:deskcolor="#d1d1d1"
     inkscape:zoom="0.1767767"
     inkscape:cx="-1148.3414"
     inkscape:cy="274.35743"
     inkscape:window-width="1920"
     inkscape:window-height="1001"
     inkscape:window-x="-9"
     inkscape:window-y="-9"
     inkscape:window-maximized="1"
     inkscape:current-layer="svg105" />
  <g
     id="g107"
     style="fill:#a54308;fill-opacity:1"
     transform="matrix(0.64883626,0,0,0.60755126,189.80884,197.1883)">
    <rect
       style="fill:#a54308;fill-opacity:1;stroke:none;stroke-width:2.66763"
       id="rect105"
       width="31.441418"
       height="190.96037"
       x="409.66318"
       y="495.66467" />
    <rect
       style="clip-rule:evenodd;fill:#a54308;fill-opacity:1;fill-rule:evenodd;stroke:none;stroke-width:2.16421;image-rendering:optimizeQuality;shape-rendering:geometricPrecision;text-rendering:geometricPrecision"
       id="rect105-9"
       width="19.057077"
       height="140.74646"
       x="373.95645"
       y="393.49295"
       ry="10.106513" />
    <rect
       style="clip-rule:evenodd;fill:#a54308;fill-opacity:1;fill-rule:evenodd;stroke:none;stroke-width:2.16421;image-rendering:optimizeQuality;shape-rendering:geometricPrecision;text-rendering:geometricPrecision"
       id="rect105-9-8"
       width="20.213026"
       height="128.37794"
       x="413.77267"
       y="392.49936"
       ry="10.106513" />
    <rect
       style="clip-rule:evenodd;fill:#a54308;fill-opacity:1;fill-rule:evenodd;stroke:none;stroke-width:2.16421;image-rendering:optimizeQuality;shape-rendering:geometricPrecision;text-rendering:geometricPrecision"
       id="rect105-9-8-2"
       width="19.981825"
       height="138.319"
       x="455.61813"
       y="392.53641"
       ry="10.106513" />
    <ellipse
       style="fill:#a54308;fill-opacity:1;stroke:none;stroke-width:2.59358"
       id="path106"
       cx="425.05176"
       cy="524.69482"
       rx="50.79248"
       ry="36.968323" />
  </g>
  <g
     id="g110"
     style="fill:#a54308;fill-opacity:1"
     transform="matrix(0.64883626,0,0,0.57683622,189.80884,220.83039)">
    <rect
       style="fill:#a54308;fill-opacity:1;stroke:none;stroke-width:2.07357"
       id="rect107"
       width="34.676308"
       height="96.064819"
       x="591.12128"
       y="591.12134"
       ry="0" />
    <rect
       style="fill:#a54308;fill-opacity:1;stroke:none;stroke-width:2.16013"
       id="rect108"
       width="23.121082"
       height="220.43089"
       x="602.79761"
       y="382.05661"
       ry="0" />
    <rect
       style="clip-rule:evenodd;fill:#a54308;fill-opacity:1;fill-rule:evenodd;stroke:none;stroke-width:1.08513;image-rendering:optimizeQuality;shape-rendering:geometricPrecision;text-rendering:geometricPrecision"
       id="rect108-5"
       width="61.726902"
       height="19.882086"
       x="-599.31189"
       y="591.22491"
       transform="scale(-1,1)" />
    <path
       id="rect109"
       d="m 626.68212,358.75931 -0.74124,24.42179 c -0.16745,5.51692 -16.33495,25.45091 -21.53396,27.97235 -18.73574,9.08652 -53.99511,76.95478 -43.78727,182.42005 0.55666,5.7513 -6.76304,4.74074 -12.28251,4.74074 h -0.9369 c -5.51946,0 -9.5724,0.0412 -9.99387,-5.72158 -6.26688,-85.68761 11.76149,-160.48321 50.90559,-201.42186 3.99323,-4.1763 14.11011,-14.39018 18.54087,-17.68152 z"
       style="fill:#a54308;fill-opacity:1;stroke:none;stroke-width:1.99937"
       sodipodi:nodetypes="ssssssssss" />
  </g>
  <g
     id="g114"
     transform="matrix(0.64883626,0,0,0.62336295,189.80884,189.38379)">
    <ellipse
       style="fill:none;fill-opacity:1;stroke:#a54308;stroke-width:20.2426;stroke-dasharray:none;stroke-opacity:1"
       id="path110"
       cx="510.63406"
       cy="714.13287"
       rx="166.74486"
       ry="42.387764" />
    <rect
       style="fill:#a54308;fill-opacity:1;stroke:#a54308;stroke-width:14.8869;stroke-dasharray:none;stroke-opacity:1"
       id="rect112"
       width="7.2852979"
       height="170.10597"
       x="631.42047"
       y="582.96979"
       ry="8.2309351"
       transform="matrix(0.99838983,-0.05672521,0.05667991,0.9983924,0,0)" />
    <rect
       style="clip-rule:evenodd;fill:#a54308;fill-opacity:1;fill-rule:evenodd;stroke:#a54308;stroke-width:15.5379;stroke-dasharray:none;stroke-opacity:1;image-rendering:optimizeQuality;shape-rendering:geometricPrecision;text-rendering:geometricPrecision"
       id="rect112-1"
       width="5.0829911"
       height="169.87988"
       x="385.07385"
       y="524.16992"
       ry="8.3247509"
       transform="matrix(0.99845917,0.05549133,-0.06068278,0.9981571,0,0)"
       rx="0" />
    <path
       id="rect112-1-1"
       style="fill:#a54308;fill-opacity:1;stroke:#a54308;stroke-width:16.0372;stroke-opacity:1"
       d="m 490.06589,139.26263 c -4.95399,7.40539 -0.33767,6.05282 -18.97123,16.18491 -93.61503,50.90365 -82.87273,193.74519 19.35548,200.81737 5.82239,0.4028 -39.1399,-6.56041 -0.78109,2.03303 20.72658,4.64333 27.54857,-15.99822 -8.3731,-6.853 -12.03732,3.06455 -146.90461,-73.13562 -11.51406,-203.94612 4.9511,-4.78361 23.97596,-13.75505 20.284,-8.23619 z"
       sodipodi:nodetypes="sssssss"
       transform="matrix(0.91205682,0.41006383,-0.30035048,0.95382891,0,0)" />
    <path
       id="rect112-1-1-5"
       style="clip-rule:evenodd;fill:#a54308;fill-opacity:1;fill-rule:evenodd;stroke:#a54308;stroke-width:13.5018;stroke-opacity:1;image-rendering:optimizeQuality;shape-rendering:geometricPrecision;text-rendering:geometricPrecision"
       d="m 628.059,334.99767 c -7.38442,-1.14821 -1.64827,6.66017 -6.77795,-7.81644 -22.47558,-63.42888 -165.63422,-74.69492 -217.81557,-0.749 -11.05616,15.66763 -82.33581,34.90312 -1.86918,-0.68943 19.05303,-8.42767 -7.63279,28.26377 7.57122,-0.5716 30.05726,-57.00552 188.35339,-67.70481 210.8681,7.27175 5.55034,18.48326 25.1281,5.21436 8.02338,2.55472 z"
       sodipodi:nodetypes="sssssss" />
    <path
       id="rect112-1-1-5-7"
       style="clip-rule:evenodd;fill:#a54308;fill-opacity:1;fill-rule:evenodd;stroke:#a54308;stroke-width:15.9818;stroke-opacity:1;image-rendering:optimizeQuality;shape-rendering:geometricPrecision;text-rendering:geometricPrecision"
       d="m 664.80854,551.32254 c 4.02378,-7.38866 -1.37568,-7.83688 16.9379,-16.21723 99.13879,-45.3662 44.73219,-183.96869 -44.57537,-199.06362 -5.80095,-0.98049 40.9035,10.63953 0.52573,-2.02355 -13.29977,-4.17101 -42.77397,-5.93562 9.23346,6.72793 11.69671,2.84809 171.30791,92.92043 37.12717,202.23393 -5.01517,4.08573 -22.2476,13.84893 -19.24889,8.34254 z"
       sodipodi:nodetypes="sssssss" />
    <rect
       style="clip-rule:evenodd;display:inline;fill:#ffffff;fill-opacity:1;fill-rule:evenodd;stroke:none;stroke-width:10.3877;stroke-dasharray:none;stroke-opacity:1;image-rendering:optimizeQuality;shape-rendering:geometricPrecision;text-rendering:geometricPrecision"
       id="rect113"
       width="7.2849016"
       height="25.008543"
       x="499.3555"
       y="739.9386"
       ry="8.1636963"
       transform="matrix(0.6812449,-0.73205559,0.35580982,0.93455838,0,0)" />
    <rect
       style="clip-rule:evenodd;display:inline;fill:#ffffff;fill-opacity:1;fill-rule:evenodd;stroke:none;stroke-width:17.9254;stroke-dasharray:none;stroke-opacity:1;image-rendering:optimizeQuality;shape-rendering:geometricPrecision;text-rendering:geometricPrecision"
       id="rect113-1"
       width="10.234435"
       height="53.009201"
       x="-170.40625"
       y="698.55377"
       ry="17.304127"
       transform="matrix(0.44884301,-0.89361063,0.96176271,0.27388408,0,0)" />
    <path
       id="rect114"
       style="display:inline;fill:#ffffff;stroke-width:25.0591"
       d="m 357.37979,356.40931 c -0.31751,-0.58438 13.27292,-5.96454 19.90938,-8.94681 2.69936,-1.21303 39.64689,-11.07939 37.53673,-9.00449 l -4.33881,4.26629 c -2.11016,2.07489 8.43138,-3.42753 5.77497,-2.12318 l -46.57683,22.86964 c -2.65643,1.30434 -6.38535,-0.16435 -8.88793,-1.74391 l -0.90432,-0.57078 c -2.5026,-1.57956 -4.57513,-2.39617 -2.1818,-4.13682 z"
       sodipodi:nodetypes="ssssssssss" />
    <path
       id="rect114-2"
       style="clip-rule:evenodd;display:inline;fill:#ffffff;fill-rule:evenodd;stroke-width:25.0591;image-rendering:optimizeQuality;shape-rendering:geometricPrecision;text-rendering:geometricPrecision"
       d="m 404.39997,344.35151 c -0.58276,-0.32047 7.95204,-12.18652 11.92805,-18.27978 1.61724,-2.47841 35.07848,-23.00179 32.17032,-22.45354 l -7.09402,1.33738 c -2.90816,0.54825 10.31512,-6.94594 8.57605,-4.55147 l -31.41008,43.24763 c -1.73907,2.39448 -5.46349,3.30907 -8.42278,3.33064 l -1.06936,0.008 c -2.95931,0.0216 -5.14472,0.45315 -4.06993,-2.30416 z"
       sodipodi:nodetypes="ssssssssss" />
    <path
       id="rect114-2-1"
       style="clip-rule:evenodd;display:inline;fill:#ffffff;fill-opacity:1;fill-rule:evenodd;stroke-width:28.1393;image-rendering:optimizeQuality;shape-rendering:geometricPrecision;text-rendering:geometricPrecision"
       d="m 321.63083,339.00648 c -0.45112,-0.54822 16.14336,-7.35574 24.21507,-11.03364 3.28312,-1.49595 48.86017,-8.71948 45.30342,-7.95406 l -5.90107,1.26993 c -3.55756,0.7656 14.97731,-4.43972 15.46279,-2.4231 -19.38511,8.76107 -27.24652,10.63515 -48.83095,20.47058 -3.30671,1.50677 -22.1952,5.90892 -25.48054,4.60241 l -1.1873,-0.47189 c -3.28538,-1.30651 -5.96221,-1.89903 -3.11072,-3.88785 z"
       sodipodi:nodetypes="sssscsssss" />
  </g>
</svg>
